<?xml version="1.0" encoding="UTF-8" standalone="no"?>
<!-- Created with Inkscape (http://www.inkscape.org/) -->

<svg
   width="3in"
   height="2in"
   viewBox="0 0 76.2 50.800001"
   version="1.1"
   id="svg5"
   inkscape:version="1.1.1 (3bf5ae0d25, 2021-09-20)"
   sodipodi:docname="scour_time.svg"
   xmlns:inkscape="http://www.inkscape.org/namespaces/inkscape"
   xmlns:sodipodi="http://sodipodi.sourceforge.net/DTD/sodipodi-0.dtd"
   xmlns="http://www.w3.org/2000/svg"
   xmlns:svg="http://www.w3.org/2000/svg"
   xmlns:ns2="http://www.iki.fi/pav/software/textext/">
  <sodipodi:namedview
     id="namedview7"
     pagecolor="#505050"
     bordercolor="#ffffff"
     borderopacity="1"
     inkscape:pageshadow="0"
     inkscape:pageopacity="0"
     inkscape:pagecheckerboard="1"
     inkscape:document-units="mm"
     showgrid="false"
     inkscape:zoom="2.9647587"
     inkscape:cx="210.47244"
     inkscape:cy="123.78748"
     inkscape:window-width="1920"
     inkscape:window-height="1020"
     inkscape:window-x="-8"
     inkscape:window-y="-8"
     inkscape:window-maximized="1"
     inkscape:current-layer="layer1"
     units="in"
     inkscape:snap-intersection-paths="true"
     inkscape:object-paths="true"
     inkscape:snap-smooth-nodes="true" />
  <defs
     id="defs2">
    <marker
       style="overflow:visible"
       id="StopL"
       refX="0.0"
       refY="0.0"
       orient="auto"
       inkscape:stockid="StopL"
       inkscape:isstock="true">
      <path
         transform="scale(0.8)"
         style="fill:none;fill-opacity:0.75000000;fill-rule:evenodd;stroke:context-stroke;stroke-width:1.0pt"
         d="M 0.0,5.65 L 0.0,-5.65"
         id="path20801" />
    </marker>
    <marker
       style="overflow:visible"
       id="Arrow1Mstart"
       refX="0.0"
       refY="0.0"
       orient="auto"
       inkscape:stockid="Arrow1Mstart"
       inkscape:isstock="true">
      <path
         transform="scale(0.4) translate(10,0)"
         style="fill-rule:evenodd;fill:context-stroke;stroke:context-stroke;stroke-width:1.0pt"
         d="M 0.0,0.0 L 5.0,-5.0 L -12.5,0.0 L 5.0,5.0 L 0.0,0.0 z "
         id="path20638" />
    </marker>
    <marker
       style="overflow:visible"
       id="Arrow1Mend"
       refX="0"
       refY="0"
       orient="auto"
       inkscape:stockid="Arrow1Mend"
       inkscape:isstock="true">
      <path
         transform="matrix(-0.4,0,0,-0.4,-4,0)"
         style="fill:context-stroke;fill-rule:evenodd;stroke:context-stroke;stroke-width:1pt"
         d="m 0,0 5,-5 -17.5,5 17.5,5 z"
         id="path15617" />
    </marker>
  </defs>
  <g
     inkscape:label="Layer 1"
     inkscape:groupmode="layer"
     id="layer1">
    <path
       style="fill:none;stroke:#000000;stroke-width:0.465;stroke-linecap:butt;stroke-linejoin:miter;stroke-opacity:1;marker-end:url(#Arrow1Mend);marker-start:url(#Arrow1Mstart);stroke-miterlimit:4;stroke-dasharray:none"
       d="m 3.2814172,6.0580013 v 40.6390907 h 67.9000978"
       id="path20630" />
    <path
       style="fill:none;stroke:#d40000;stroke-width:0.665;stroke-linecap:butt;stroke-linejoin:miter;stroke-miterlimit:4;stroke-dasharray:none;stroke-opacity:1"
       d="m 3.2814172,46.697092 c 1.9945893,-14.966206 8.0260228,-30.542422 26.2513398,-30.542422 h 41.648758"
       id="path21028"
       sodipodi:nodetypes="csc" />
    <path
       style="fill:none;stroke:#000000;stroke-width:0.26458299;stroke-linecap:butt;stroke-linejoin:miter;stroke-opacity:1;stroke-miterlimit:4;stroke-dasharray:0.79374896,0.79374896;stroke-dashoffset:0"
       d="m 27.37907,16.230153 h -24.0976528"
       id="path21624" />
    <g
       transform="matrix(0.596548,0,0,0.596548,5.8738033,2.9917036)"
       ns2:version="1.6.0"
       ns2:texconverter="pdflatex"
       ns2:pdfconverter="inkscape"
       ns2:text="$S_t$"
       ns2:preamble="C:\Users\$r.984804\OneDrive - University of Maine System\UMaine_docs\Faculty_Service\Brochure4+1\preamble_triptico.tex"
       ns2:scale="1.691"
       ns2:alignment="middle center"
       ns2:stroke-to-path="0"
       ns2:inkscapeversion="1.1.1"
       ns2:jacobian_sqrt="0.596548"
       id="g21756">
      <defs
         id="id-31f46030-f8fb-4656-bfc7-a17ed85af765">
        <g
           id="id-63833388-04ac-4e97-9831-248244f04f0c">
          <symbol
             overflow="visible"
             id="id-71c2536a-d6c3-4d7d-8834-5993cf9359d5">
            <path
               style="stroke:none;stroke-width:0"
               d=""
               id="id-953b861c-7def-4a63-a5f1-4b1ca6dc8318" />
          </symbol>
          <symbol
             overflow="visible"
             id="id-23ee591b-341f-4314-86cb-103a1cdb24b4">
            <path
               style="stroke:none;stroke-width:0"
               d="m 6.4375,-6.921875 c 0,-0.03125 -0.03125,-0.109375 -0.125,-0.109375 -0.046875,0 -0.046875,0.015625 -0.171875,0.15625 l -0.484375,0.5625 c -0.25,-0.46875 -0.765625,-0.71875 -1.421875,-0.71875 -1.265625,0 -2.453125,1.15625 -2.453125,2.359375 0,0.796875 0.515625,1.265625 1.03125,1.40625 l 1.0625,0.28125 c 0.375,0.09375 0.921875,0.25 0.921875,1.0625 0,0.890625 -0.8125,1.828125 -1.796875,1.828125 -0.640625,0 -1.75,-0.21875 -1.75,-1.453125 0,-0.234375 0.0625,-0.484375 0.0625,-0.53125 0.015625,-0.046875 0.015625,-0.0625 0.015625,-0.078125 0,-0.09375 -0.0625,-0.109375 -0.109375,-0.109375 -0.046875,0 -0.078125,0.015625 -0.109375,0.046875 -0.03125,0.03125 -0.59375,2.3125 -0.59375,2.34375 0,0.046875 0.046875,0.09375 0.109375,0.09375 0.046875,0 0.0625,-0.015625 0.1875,-0.15625 l 0.484375,-0.5625 c 0.421875,0.578125 1.109375,0.71875 1.6875,0.71875 1.359375,0 2.53125,-1.328125 2.53125,-2.5625 0,-0.6875 -0.34375,-1.03125 -0.484375,-1.171875 -0.234375,-0.21875 -0.390625,-0.265625 -1.265625,-0.484375 -0.234375,-0.0625 -0.578125,-0.171875 -0.671875,-0.1875 -0.265625,-0.09375 -0.609375,-0.375 -0.609375,-0.90625 0,-0.8125 0.796875,-1.65625 1.75,-1.65625 0.8125,0 1.421875,0.4375 1.421875,1.546875 0,0.3125 -0.03125,0.5 -0.03125,0.5625 0,0 0,0.09375 0.109375,0.09375 0.109375,0 0.125,-0.03125 0.15625,-0.203125 z m 0,0"
               id="id-5db895d8-2bf9-4e5e-9d07-90e1b1315f51" />
          </symbol>
          <symbol
             overflow="visible"
             id="id-eab67ea6-baaa-4a87-990c-4c3694952965">
            <path
               style="stroke:none;stroke-width:0"
               d=""
               id="id-f6d0e6cf-70fd-4d13-990b-0d18a5dc1ab7" />
          </symbol>
          <symbol
             overflow="visible"
             id="id-78b1cedb-e9ee-4d57-849a-29438571c08a">
            <path
               style="stroke:none;stroke-width:0"
               d="m 1.71875,-2.75 h 0.703125 c 0.140625,0 0.21875,0 0.21875,-0.15625 0,-0.09375 -0.078125,-0.09375 -0.203125,-0.09375 h -0.65625 l 0.25,-1.03125 c 0.015625,-0.03125 0.03125,-0.078125 0.03125,-0.09375 0,-0.140625 -0.109375,-0.234375 -0.25,-0.234375 -0.171875,0 -0.265625,0.125 -0.328125,0.296875 -0.046875,0.1875 0.046875,-0.15625 -0.265625,1.0625 h -0.703125 c -0.125,0 -0.21875,0 -0.21875,0.15625 0,0.09375 0.078125,0.09375 0.203125,0.09375 h 0.65625 l -0.40625,1.640625 c -0.046875,0.171875 -0.109375,0.421875 -0.109375,0.515625 0,0.40625 0.359375,0.65625 0.75,0.65625 0.78125,0 1.21875,-0.96875 1.21875,-1.0625 0,-0.09375 -0.09375,-0.09375 -0.109375,-0.09375 -0.09375,0 -0.09375,0.015625 -0.15625,0.140625 -0.1875,0.4375 -0.546875,0.828125 -0.921875,0.828125 -0.15625,0 -0.25,-0.09375 -0.25,-0.34375 0,-0.0625 0.03125,-0.21875 0.046875,-0.28125 z m 0,0"
               id="id-772f4f96-29d9-4314-9c33-ef9d82411e26" />
          </symbol>
        </g>
      </defs>
      <g
         id="id-163bf150-e065-4932-a726-a37be5613c1d"
         transform="translate(-70.7356,-99.4437)">
        <g
           style="fill:#000000;fill-opacity:1"
           id="id-a4d3a315-c5a0-44c2-b98e-65611ad8e326">
          <g
             transform="translate(70.22,106.475)"
             id="g21748">
            <path
               style="stroke:none;stroke-width:0"
               d="m 6.4375,-6.921875 c 0,-0.03125 -0.03125,-0.109375 -0.125,-0.109375 -0.046875,0 -0.046875,0.015625 -0.171875,0.15625 l -0.484375,0.5625 c -0.25,-0.46875 -0.765625,-0.71875 -1.421875,-0.71875 -1.265625,0 -2.453125,1.15625 -2.453125,2.359375 0,0.796875 0.515625,1.265625 1.03125,1.40625 l 1.0625,0.28125 c 0.375,0.09375 0.921875,0.25 0.921875,1.0625 0,0.890625 -0.8125,1.828125 -1.796875,1.828125 -0.640625,0 -1.75,-0.21875 -1.75,-1.453125 0,-0.234375 0.0625,-0.484375 0.0625,-0.53125 0.015625,-0.046875 0.015625,-0.0625 0.015625,-0.078125 0,-0.09375 -0.0625,-0.109375 -0.109375,-0.109375 -0.046875,0 -0.078125,0.015625 -0.109375,0.046875 -0.03125,0.03125 -0.59375,2.3125 -0.59375,2.34375 0,0.046875 0.046875,0.09375 0.109375,0.09375 0.046875,0 0.0625,-0.015625 0.1875,-0.15625 l 0.484375,-0.5625 c 0.421875,0.578125 1.109375,0.71875 1.6875,0.71875 1.359375,0 2.53125,-1.328125 2.53125,-2.5625 0,-0.6875 -0.34375,-1.03125 -0.484375,-1.171875 -0.234375,-0.21875 -0.390625,-0.265625 -1.265625,-0.484375 -0.234375,-0.0625 -0.578125,-0.171875 -0.671875,-0.1875 -0.265625,-0.09375 -0.609375,-0.375 -0.609375,-0.90625 0,-0.8125 0.796875,-1.65625 1.75,-1.65625 0.8125,0 1.421875,0.4375 1.421875,1.546875 0,0.3125 -0.03125,0.5 -0.03125,0.5625 0,0 0,0.09375 0.109375,0.09375 0.109375,0 0.125,-0.03125 0.15625,-0.203125 z m 0,0"
               id="id-546ab7ed-1b73-49ab-8cc6-4f2f0b813e5e" />
          </g>
        </g>
        <g
           style="fill:#000000;fill-opacity:1"
           id="id-f7b8908c-5ff6-4107-8e22-27fd80640cb0">
          <g
             transform="translate(76.329,107.969)"
             id="g21752">
            <path
               style="stroke:none;stroke-width:0"
               d="m 1.71875,-2.75 h 0.703125 c 0.140625,0 0.21875,0 0.21875,-0.15625 0,-0.09375 -0.078125,-0.09375 -0.203125,-0.09375 h -0.65625 l 0.25,-1.03125 c 0.015625,-0.03125 0.03125,-0.078125 0.03125,-0.09375 0,-0.140625 -0.109375,-0.234375 -0.25,-0.234375 -0.171875,0 -0.265625,0.125 -0.328125,0.296875 -0.046875,0.1875 0.046875,-0.15625 -0.265625,1.0625 h -0.703125 c -0.125,0 -0.21875,0 -0.21875,0.15625 0,0.09375 0.078125,0.09375 0.203125,0.09375 h 0.65625 l -0.40625,1.640625 c -0.046875,0.171875 -0.109375,0.421875 -0.109375,0.515625 0,0.40625 0.359375,0.65625 0.75,0.65625 0.78125,0 1.21875,-0.96875 1.21875,-1.0625 0,-0.09375 -0.09375,-0.09375 -0.109375,-0.09375 -0.09375,0 -0.09375,0.015625 -0.15625,0.140625 -0.1875,0.4375 -0.546875,0.828125 -0.921875,0.828125 -0.15625,0 -0.25,-0.09375 -0.25,-0.34375 0,-0.0625 0.03125,-0.21875 0.046875,-0.28125 z m 0,0"
               id="id-67c20dbc-564c-4389-be56-8cbc5efb9e01" />
          </g>
        </g>
      </g>
    </g>
    <g
       transform="matrix(0.596548 0 0 0.596548 68.1225 39.2899)"
       ns2:version="1.6.0"
       ns2:texconverter="pdflatex"
       ns2:pdfconverter="inkscape"
       ns2:text="$t$"
       ns2:preamble="C:\Users\$r.984804\OneDrive - University of Maine System\UMaine_docs\Faculty_Service\Brochure4+1\preamble_triptico.tex"
       ns2:scale="1.691"
       ns2:alignment="middle center"
       ns2:stroke-to-path="0"
       ns2:inkscapeversion="1.1.1"
       ns2:jacobian_sqrt="0.596548"
       id="g21866">
      <defs
         id="id-a98fa33b-53f4-4977-b6b7-c99bdd3e0557">
        <g
           id="id-a6aa56de-9826-4234-9c59-a69078f100a4">
          <symbol
             overflow="visible"
             id="id-5bc7421c-f9d7-4f82-a42b-dcefda98c52b">
            <path
               style="stroke:none"
               d=""
               id="id-fb25fabd-dc40-45ce-8e70-f255ba58c5cc" />
          </symbol>
          <symbol
             overflow="visible"
             id="id-e9f62309-2694-43cf-ba94-8320483d5d9b">
            <path
               style="stroke:none"
               d="m 2.046875,-3.984375 h 0.9375 c 0.203125,0 0.3125,0 0.3125,-0.203125 0,-0.109375 -0.109375,-0.109375 -0.28125,-0.109375 h -0.875 c 0.359375,-1.421875 0.40625,-1.609375 0.40625,-1.671875 0,-0.171875 -0.125,-0.265625 -0.296875,-0.265625 -0.03125,0 -0.3125,0 -0.390625,0.359375 l -0.390625,1.578125 h -0.9375 c -0.203125,0 -0.296875,0 -0.296875,0.1875 0,0.125 0.078125,0.125 0.28125,0.125 h 0.875 c -0.71875,2.828125 -0.765625,3 -0.765625,3.171875 0,0.546875 0.375,0.921875 0.921875,0.921875 1.015625,0 1.578125,-1.453125 1.578125,-1.53125 0,-0.109375 -0.078125,-0.109375 -0.109375,-0.109375 -0.09375,0 -0.109375,0.03125 -0.15625,0.140625 -0.421875,1.046875 -0.953125,1.28125 -1.296875,1.28125 -0.203125,0 -0.3125,-0.125 -0.3125,-0.453125 0,-0.25 0.03125,-0.3125 0.0625,-0.484375 z m 0,0"
               id="id-4876d1ff-ead4-4997-8b44-7ded512c641d" />
          </symbol>
        </g>
      </defs>
      <g
         id="id-c2eab9f5-7072-440f-87ba-c1557f4e865a"
         transform="translate(-70.4544, -100.241)">
        <g
           style="fill:#000000;fill-opacity:1"
           id="id-e9437cfe-8d6d-4ca2-9f58-389238c7c37d">
          <g
             transform="translate(70.22, 106.475)"
             id="g21985">
            <path
               style="stroke:none"
               d="m 2.046875,-3.984375 h 0.9375 c 0.203125,0 0.3125,0 0.3125,-0.203125 0,-0.109375 -0.109375,-0.109375 -0.28125,-0.109375 h -0.875 c 0.359375,-1.421875 0.40625,-1.609375 0.40625,-1.671875 0,-0.171875 -0.125,-0.265625 -0.296875,-0.265625 -0.03125,0 -0.3125,0 -0.390625,0.359375 l -0.390625,1.578125 h -0.9375 c -0.203125,0 -0.296875,0 -0.296875,0.1875 0,0.125 0.078125,0.125 0.28125,0.125 h 0.875 c -0.71875,2.828125 -0.765625,3 -0.765625,3.171875 0,0.546875 0.375,0.921875 0.921875,0.921875 1.015625,0 1.578125,-1.453125 1.578125,-1.53125 0,-0.109375 -0.078125,-0.109375 -0.109375,-0.109375 -0.09375,0 -0.109375,0.03125 -0.15625,0.140625 -0.421875,1.046875 -0.953125,1.28125 -1.296875,1.28125 -0.203125,0 -0.3125,-0.125 -0.3125,-0.453125 0,-0.25 0.03125,-0.3125 0.0625,-0.484375 z m 0,0"
               id="id-519fb7cf-2138-4b8e-9fe8-7e0e426888bd" />
          </g>
        </g>
      </g>
    </g>
    <g
       transform="matrix(0.596548 0 0 0.596548 9.75077 11.1071)"
       ns2:version="1.6.0"
       ns2:texconverter="pdflatex"
       ns2:pdfconverter="inkscape"
       ns2:text="$S_{max}$"
       ns2:preamble="C:\Users\$r.984804\OneDrive - University of Maine System\UMaine_docs\Faculty_Service\Brochure4+1\preamble_triptico.tex"
       ns2:scale="1.691"
       ns2:alignment="middle center"
       ns2:stroke-to-path="0"
       ns2:inkscapeversion="1.1.1"
       ns2:jacobian_sqrt="0.596548"
       id="g21830">
      <defs
         id="id-b877f113-2fb4-428c-8fc4-7f7884ac2043">
        <g
           id="id-e2cfd369-cff2-4a63-834b-fdfa9aec3fe9">
          <symbol
             overflow="visible"
             id="id-8b0526a9-4f42-4645-8293-df5693174b38">
            <path
               style="stroke:none"
               d=""
               id="id-8cfd633d-4913-490c-84e1-f9f44853f997" />
          </symbol>
          <symbol
             overflow="visible"
             id="id-064f8fa8-62a0-46a1-b743-89cd7c658c01">
            <path
               style="stroke:none"
               d="m 6.4375,-6.921875 c 0,-0.03125 -0.03125,-0.109375 -0.125,-0.109375 -0.046875,0 -0.046875,0.015625 -0.171875,0.15625 l -0.484375,0.5625 c -0.25,-0.46875 -0.765625,-0.71875 -1.421875,-0.71875 -1.265625,0 -2.453125,1.15625 -2.453125,2.359375 0,0.796875 0.515625,1.265625 1.03125,1.40625 l 1.0625,0.28125 c 0.375,0.09375 0.921875,0.25 0.921875,1.0625 0,0.890625 -0.8125,1.828125 -1.796875,1.828125 -0.640625,0 -1.75,-0.21875 -1.75,-1.453125 0,-0.234375 0.0625,-0.484375 0.0625,-0.53125 0.015625,-0.046875 0.015625,-0.0625 0.015625,-0.078125 0,-0.09375 -0.0625,-0.109375 -0.109375,-0.109375 -0.046875,0 -0.078125,0.015625 -0.109375,0.046875 -0.03125,0.03125 -0.59375,2.3125 -0.59375,2.34375 0,0.046875 0.046875,0.09375 0.109375,0.09375 0.046875,0 0.0625,-0.015625 0.1875,-0.15625 l 0.484375,-0.5625 c 0.421875,0.578125 1.109375,0.71875 1.6875,0.71875 1.359375,0 2.53125,-1.328125 2.53125,-2.5625 0,-0.6875 -0.34375,-1.03125 -0.484375,-1.171875 -0.234375,-0.21875 -0.390625,-0.265625 -1.265625,-0.484375 -0.234375,-0.0625 -0.578125,-0.171875 -0.671875,-0.1875 -0.265625,-0.09375 -0.609375,-0.375 -0.609375,-0.90625 0,-0.8125 0.796875,-1.65625 1.75,-1.65625 0.8125,0 1.421875,0.4375 1.421875,1.546875 0,0.3125 -0.03125,0.5 -0.03125,0.5625 0,0 0,0.09375 0.109375,0.09375 0.109375,0 0.125,-0.03125 0.15625,-0.203125 z m 0,0"
               id="id-1d359de4-920c-4323-9618-b6b2eb9966d7" />
          </symbol>
          <symbol
             overflow="visible"
             id="id-65fc939c-4357-4f53-b346-7c0475a2a8f0">
            <path
               style="stroke:none"
               d=""
               id="id-0a3e06ef-fce3-4c2f-a285-66b4ecff2987" />
          </symbol>
          <symbol
             overflow="visible"
             id="id-c417e46f-fd89-4f6c-a752-3a947b903624">
            <path
               style="stroke:none"
               d="m 3.03125,-0.5625 c -0.046875,0.140625 -0.109375,0.375 -0.109375,0.40625 0,0.15625 0.125,0.21875 0.234375,0.21875 0.140625,0 0.25,-0.078125 0.28125,-0.140625 0.03125,-0.0625 0.09375,-0.296875 0.125,-0.4375 0.03125,-0.125 0.109375,-0.453125 0.15625,-0.625 0.03125,-0.15625 0.078125,-0.3125 0.109375,-0.46875 0.078125,-0.296875 0.078125,-0.3125 0.21875,-0.53125 0.21875,-0.34375 0.578125,-0.734375 1.109375,-0.734375 0.390625,0 0.421875,0.3125 0.421875,0.484375 0,0.421875 -0.296875,1.1875 -0.421875,1.484375 -0.0625,0.203125 -0.09375,0.265625 -0.09375,0.375 0,0.375 0.296875,0.59375 0.65625,0.59375 0.703125,0 1,-0.953125 1,-1.0625 0,-0.09375 -0.078125,-0.09375 -0.109375,-0.09375 -0.09375,0 -0.09375,0.046875 -0.125,0.125 -0.15625,0.5625 -0.46875,0.84375 -0.734375,0.84375 -0.15625,0 -0.1875,-0.09375 -0.1875,-0.25 0,-0.15625 0.046875,-0.25 0.171875,-0.5625 0.078125,-0.21875 0.359375,-0.953125 0.359375,-1.34375 0,-0.109375 0,-0.40625 -0.25,-0.609375 -0.125,-0.078125 -0.328125,-0.1875 -0.65625,-0.1875 -0.625,0 -1,0.421875 -1.234375,0.703125 -0.046875,-0.59375 -0.546875,-0.703125 -0.90625,-0.703125 -0.578125,0 -0.96875,0.359375 -1.171875,0.640625 -0.046875,-0.484375 -0.453125,-0.640625 -0.75,-0.640625 -0.296875,0 -0.453125,0.21875 -0.546875,0.375 -0.15625,0.265625 -0.25,0.65625 -0.25,0.703125 0,0.078125 0.09375,0.078125 0.125,0.078125 0.09375,0 0.09375,-0.015625 0.140625,-0.203125 0.109375,-0.40625 0.25,-0.75 0.515625,-0.75 0.1875,0 0.234375,0.15625 0.234375,0.34375 0,0.125 -0.0625,0.390625 -0.125,0.578125 -0.046875,0.1875 -0.109375,0.46875 -0.140625,0.625 l -0.234375,0.890625 c -0.015625,0.09375 -0.0625,0.265625 -0.0625,0.28125 0,0.15625 0.125,0.21875 0.234375,0.21875 0.125,0 0.234375,-0.078125 0.28125,-0.140625 0.03125,-0.0625 0.078125,-0.296875 0.125,-0.4375 0.03125,-0.125 0.109375,-0.453125 0.140625,-0.625 0.046875,-0.15625 0.09375,-0.3125 0.125,-0.46875 0.078125,-0.28125 0.09375,-0.34375 0.296875,-0.625 0.1875,-0.28125 0.515625,-0.640625 1.046875,-0.640625 0.390625,0 0.40625,0.359375 0.40625,0.484375 0,0.171875 -0.015625,0.265625 -0.125,0.65625 z m 0,0"
               id="id-d7501cc8-9cba-4534-b398-53e17cffb160" />
          </symbol>
          <symbol
             overflow="visible"
             id="id-8b4933f7-82fc-4628-b8ac-ffa98d08a055">
            <path
               style="stroke:none"
               d="m 2.9375,-2.65625 c -0.140625,-0.234375 -0.375,-0.421875 -0.71875,-0.421875 -0.890625,0 -1.796875,0.984375 -1.796875,1.984375 0,0.6875 0.453125,1.15625 1.0625,1.15625 0.375,0 0.703125,-0.203125 0.984375,-0.484375 0.125,0.421875 0.53125,0.484375 0.71875,0.484375 0.25,0 0.421875,-0.140625 0.546875,-0.359375 0.15625,-0.28125 0.25,-0.671875 0.25,-0.703125 0,-0.09375 -0.09375,-0.09375 -0.109375,-0.09375 -0.109375,0 -0.109375,0.03125 -0.15625,0.21875 -0.09375,0.34375 -0.21875,0.75 -0.515625,0.75 -0.171875,0 -0.234375,-0.15625 -0.234375,-0.34375 0,-0.109375 0.0625,-0.375 0.109375,-0.546875 0.046875,-0.1875 0.125,-0.46875 0.15625,-0.625 l 0.140625,-0.53125 c 0.046875,-0.1875 0.125,-0.515625 0.125,-0.546875 0,-0.15625 -0.125,-0.21875 -0.234375,-0.21875 -0.125,0 -0.28125,0.078125 -0.328125,0.28125 z m -0.4375,1.78125 c -0.046875,0.203125 -0.203125,0.34375 -0.359375,0.46875 -0.0625,0.0625 -0.34375,0.28125 -0.640625,0.28125 -0.265625,0 -0.515625,-0.1875 -0.515625,-0.671875 0,-0.375 0.203125,-1.140625 0.375,-1.421875 0.3125,-0.5625 0.671875,-0.65625 0.859375,-0.65625 0.484375,0 0.625,0.53125 0.625,0.609375 0,0.015625 -0.015625,0.078125 -0.015625,0.09375 z m 0,0"
               id="id-04cdb542-a7d0-4d18-ba38-bbedd93b328e" />
          </symbol>
          <symbol
             overflow="visible"
             id="id-7e1eff5a-43ad-4729-ae14-b670e2fb3011">
            <path
               style="stroke:none"
               d="m 1.734375,-0.734375 c -0.0625,0.234375 -0.296875,0.609375 -0.65625,0.609375 -0.015625,0 -0.234375,0 -0.375,-0.09375 0.28125,-0.09375 0.3125,-0.34375 0.3125,-0.390625 0,-0.15625 -0.125,-0.25 -0.28125,-0.25 -0.203125,0 -0.40625,0.15625 -0.40625,0.421875 0,0.34375 0.390625,0.5 0.734375,0.5 0.328125,0 0.609375,-0.1875 0.78125,-0.484375 0.171875,0.359375 0.546875,0.484375 0.828125,0.484375 0.8125,0 1.234375,-0.859375 1.234375,-1.0625 0,-0.09375 -0.09375,-0.09375 -0.109375,-0.09375 -0.109375,0 -0.109375,0.046875 -0.140625,0.125 -0.140625,0.484375 -0.5625,0.84375 -0.953125,0.84375 -0.28125,0 -0.421875,-0.1875 -0.421875,-0.453125 0,-0.1875 0.171875,-0.8125 0.359375,-1.59375 0.140625,-0.53125 0.453125,-0.703125 0.6875,-0.703125 0.015625,0 0.21875,0 0.375,0.09375 -0.21875,0.0625 -0.3125,0.265625 -0.3125,0.390625 0,0.140625 0.125,0.25 0.28125,0.25 0.15625,0 0.390625,-0.125 0.390625,-0.421875 0,-0.390625 -0.453125,-0.515625 -0.71875,-0.515625 -0.359375,0 -0.640625,0.234375 -0.78125,0.5 -0.125,-0.28125 -0.453125,-0.5 -0.84375,-0.5 -0.78125,0 -1.21875,0.859375 -1.21875,1.078125 0,0.078125 0.09375,0.078125 0.109375,0.078125 0.09375,0 0.09375,-0.015625 0.140625,-0.109375 0.171875,-0.546875 0.609375,-0.84375 0.953125,-0.84375 0.234375,0 0.421875,0.125 0.421875,0.453125 0,0.140625 -0.09375,0.484375 -0.15625,0.734375 z m 0,0"
               id="id-ecd16a65-06c4-471a-96a0-39059b032889" />
          </symbol>
        </g>
      </defs>
      <g
         id="id-80202dea-5ef3-4b62-b980-9304fff30b1e"
         transform="translate(-70.7356, -99.4437)">
        <g
           style="fill:#000000;fill-opacity:1"
           id="id-bbd14e23-a5f8-4119-bf4c-a66a8fb6f418">
          <g
             transform="translate(70.22, 106.475)"
             id="g22132">
            <path
               style="stroke:none"
               d="m 6.4375,-6.921875 c 0,-0.03125 -0.03125,-0.109375 -0.125,-0.109375 -0.046875,0 -0.046875,0.015625 -0.171875,0.15625 l -0.484375,0.5625 c -0.25,-0.46875 -0.765625,-0.71875 -1.421875,-0.71875 -1.265625,0 -2.453125,1.15625 -2.453125,2.359375 0,0.796875 0.515625,1.265625 1.03125,1.40625 l 1.0625,0.28125 c 0.375,0.09375 0.921875,0.25 0.921875,1.0625 0,0.890625 -0.8125,1.828125 -1.796875,1.828125 -0.640625,0 -1.75,-0.21875 -1.75,-1.453125 0,-0.234375 0.0625,-0.484375 0.0625,-0.53125 0.015625,-0.046875 0.015625,-0.0625 0.015625,-0.078125 0,-0.09375 -0.0625,-0.109375 -0.109375,-0.109375 -0.046875,0 -0.078125,0.015625 -0.109375,0.046875 -0.03125,0.03125 -0.59375,2.3125 -0.59375,2.34375 0,0.046875 0.046875,0.09375 0.109375,0.09375 0.046875,0 0.0625,-0.015625 0.1875,-0.15625 l 0.484375,-0.5625 c 0.421875,0.578125 1.109375,0.71875 1.6875,0.71875 1.359375,0 2.53125,-1.328125 2.53125,-2.5625 0,-0.6875 -0.34375,-1.03125 -0.484375,-1.171875 -0.234375,-0.21875 -0.390625,-0.265625 -1.265625,-0.484375 -0.234375,-0.0625 -0.578125,-0.171875 -0.671875,-0.1875 -0.265625,-0.09375 -0.609375,-0.375 -0.609375,-0.90625 0,-0.8125 0.796875,-1.65625 1.75,-1.65625 0.8125,0 1.421875,0.4375 1.421875,1.546875 0,0.3125 -0.03125,0.5 -0.03125,0.5625 0,0 0,0.09375 0.109375,0.09375 0.109375,0 0.125,-0.03125 0.15625,-0.203125 z m 0,0"
               id="id-fe098975-096b-4a51-b5b3-92a00ceee25f" />
          </g>
        </g>
        <g
           style="fill:#000000;fill-opacity:1"
           id="id-202639cd-3a3a-4bcb-a23b-31e9b6a8eedd">
          <g
             transform="translate(76.329, 107.969)"
             id="g22136">
            <path
               style="stroke:none"
               d="m 3.03125,-0.5625 c -0.046875,0.140625 -0.109375,0.375 -0.109375,0.40625 0,0.15625 0.125,0.21875 0.234375,0.21875 0.140625,0 0.25,-0.078125 0.28125,-0.140625 0.03125,-0.0625 0.09375,-0.296875 0.125,-0.4375 0.03125,-0.125 0.109375,-0.453125 0.15625,-0.625 0.03125,-0.15625 0.078125,-0.3125 0.109375,-0.46875 0.078125,-0.296875 0.078125,-0.3125 0.21875,-0.53125 0.21875,-0.34375 0.578125,-0.734375 1.109375,-0.734375 0.390625,0 0.421875,0.3125 0.421875,0.484375 0,0.421875 -0.296875,1.1875 -0.421875,1.484375 -0.0625,0.203125 -0.09375,0.265625 -0.09375,0.375 0,0.375 0.296875,0.59375 0.65625,0.59375 0.703125,0 1,-0.953125 1,-1.0625 0,-0.09375 -0.078125,-0.09375 -0.109375,-0.09375 -0.09375,0 -0.09375,0.046875 -0.125,0.125 -0.15625,0.5625 -0.46875,0.84375 -0.734375,0.84375 -0.15625,0 -0.1875,-0.09375 -0.1875,-0.25 0,-0.15625 0.046875,-0.25 0.171875,-0.5625 0.078125,-0.21875 0.359375,-0.953125 0.359375,-1.34375 0,-0.109375 0,-0.40625 -0.25,-0.609375 -0.125,-0.078125 -0.328125,-0.1875 -0.65625,-0.1875 -0.625,0 -1,0.421875 -1.234375,0.703125 -0.046875,-0.59375 -0.546875,-0.703125 -0.90625,-0.703125 -0.578125,0 -0.96875,0.359375 -1.171875,0.640625 -0.046875,-0.484375 -0.453125,-0.640625 -0.75,-0.640625 -0.296875,0 -0.453125,0.21875 -0.546875,0.375 -0.15625,0.265625 -0.25,0.65625 -0.25,0.703125 0,0.078125 0.09375,0.078125 0.125,0.078125 0.09375,0 0.09375,-0.015625 0.140625,-0.203125 0.109375,-0.40625 0.25,-0.75 0.515625,-0.75 0.1875,0 0.234375,0.15625 0.234375,0.34375 0,0.125 -0.0625,0.390625 -0.125,0.578125 -0.046875,0.1875 -0.109375,0.46875 -0.140625,0.625 l -0.234375,0.890625 c -0.015625,0.09375 -0.0625,0.265625 -0.0625,0.28125 0,0.15625 0.125,0.21875 0.234375,0.21875 0.125,0 0.234375,-0.078125 0.28125,-0.140625 0.03125,-0.0625 0.078125,-0.296875 0.125,-0.4375 0.03125,-0.125 0.109375,-0.453125 0.140625,-0.625 0.046875,-0.15625 0.09375,-0.3125 0.125,-0.46875 0.078125,-0.28125 0.09375,-0.34375 0.296875,-0.625 0.1875,-0.28125 0.515625,-0.640625 1.046875,-0.640625 0.390625,0 0.40625,0.359375 0.40625,0.484375 0,0.171875 -0.015625,0.265625 -0.125,0.65625 z m 0,0"
               id="id-c287e678-9584-40c6-a14c-94ccfb156e11" />
          </g>
          <g
             transform="translate(83.3983, 107.969)"
             id="g22139">
            <path
               style="stroke:none"
               d="m 2.9375,-2.65625 c -0.140625,-0.234375 -0.375,-0.421875 -0.71875,-0.421875 -0.890625,0 -1.796875,0.984375 -1.796875,1.984375 0,0.6875 0.453125,1.15625 1.0625,1.15625 0.375,0 0.703125,-0.203125 0.984375,-0.484375 0.125,0.421875 0.53125,0.484375 0.71875,0.484375 0.25,0 0.421875,-0.140625 0.546875,-0.359375 0.15625,-0.28125 0.25,-0.671875 0.25,-0.703125 0,-0.09375 -0.09375,-0.09375 -0.109375,-0.09375 -0.109375,0 -0.109375,0.03125 -0.15625,0.21875 -0.09375,0.34375 -0.21875,0.75 -0.515625,0.75 -0.171875,0 -0.234375,-0.15625 -0.234375,-0.34375 0,-0.109375 0.0625,-0.375 0.109375,-0.546875 0.046875,-0.1875 0.125,-0.46875 0.15625,-0.625 l 0.140625,-0.53125 c 0.046875,-0.1875 0.125,-0.515625 0.125,-0.546875 0,-0.15625 -0.125,-0.21875 -0.234375,-0.21875 -0.125,0 -0.28125,0.078125 -0.328125,0.28125 z m -0.4375,1.78125 c -0.046875,0.203125 -0.203125,0.34375 -0.359375,0.46875 -0.0625,0.0625 -0.34375,0.28125 -0.640625,0.28125 -0.265625,0 -0.515625,-0.1875 -0.515625,-0.671875 0,-0.375 0.203125,-1.140625 0.375,-1.421875 0.3125,-0.5625 0.671875,-0.65625 0.859375,-0.65625 0.484375,0 0.625,0.53125 0.625,0.609375 0,0.015625 -0.015625,0.078125 -0.015625,0.09375 z m 0,0"
               id="id-bd8f81b1-ec47-43cf-90d0-a37f231add85" />
          </g>
          <g
             transform="translate(87.72, 107.969)"
             id="g22142">
            <path
               style="stroke:none"
               d="m 1.734375,-0.734375 c -0.0625,0.234375 -0.296875,0.609375 -0.65625,0.609375 -0.015625,0 -0.234375,0 -0.375,-0.09375 0.28125,-0.09375 0.3125,-0.34375 0.3125,-0.390625 0,-0.15625 -0.125,-0.25 -0.28125,-0.25 -0.203125,0 -0.40625,0.15625 -0.40625,0.421875 0,0.34375 0.390625,0.5 0.734375,0.5 0.328125,0 0.609375,-0.1875 0.78125,-0.484375 0.171875,0.359375 0.546875,0.484375 0.828125,0.484375 0.8125,0 1.234375,-0.859375 1.234375,-1.0625 0,-0.09375 -0.09375,-0.09375 -0.109375,-0.09375 -0.109375,0 -0.109375,0.046875 -0.140625,0.125 -0.140625,0.484375 -0.5625,0.84375 -0.953125,0.84375 -0.28125,0 -0.421875,-0.1875 -0.421875,-0.453125 0,-0.1875 0.171875,-0.8125 0.359375,-1.59375 0.140625,-0.53125 0.453125,-0.703125 0.6875,-0.703125 0.015625,0 0.21875,0 0.375,0.09375 -0.21875,0.0625 -0.3125,0.265625 -0.3125,0.390625 0,0.140625 0.125,0.25 0.28125,0.25 0.15625,0 0.390625,-0.125 0.390625,-0.421875 0,-0.390625 -0.453125,-0.515625 -0.71875,-0.515625 -0.359375,0 -0.640625,0.234375 -0.78125,0.5 -0.125,-0.28125 -0.453125,-0.5 -0.84375,-0.5 -0.78125,0 -1.21875,0.859375 -1.21875,1.078125 0,0.078125 0.09375,0.078125 0.109375,0.078125 0.09375,0 0.09375,-0.015625 0.140625,-0.109375 0.171875,-0.546875 0.609375,-0.84375 0.953125,-0.84375 0.234375,0 0.421875,0.125 0.421875,0.453125 0,0.140625 -0.09375,0.484375 -0.15625,0.734375 z m 0,0"
               id="id-09c8b0dc-93da-49ff-a3e9-44fe7247c262" />
          </g>
        </g>
      </g>
    </g>
    <path
       style="fill:none;stroke:#000000;stroke-width:0.41512px;stroke-linecap:butt;stroke-linejoin:miter;stroke-opacity:1"
       d="m 38.385686,23.729096 v 17.623399"
       id="path22292" />
    <path
       style="fill:none;stroke:#000000;stroke-width:0.41512px;stroke-linecap:butt;stroke-linejoin:miter;stroke-opacity:1"
       d="m 41.058898,23.729096 v 17.623399"
       id="path22374" />
    <path
       style="fill:none;stroke:#000000;stroke-width:0.41512;stroke-linecap:butt;stroke-linejoin:miter;stroke-miterlimit:4;stroke-dasharray:0.83024, 0.41512;stroke-dashoffset:0;stroke-opacity:1"
       d="m 27.791847,34.520955 h 22.17776"
       id="path22409" />
    <path
       style="fill:none;stroke:#000000;stroke-width:0.41512px;stroke-linecap:butt;stroke-linejoin:miter;stroke-opacity:1"
       d="m 27.791847,34.520955 c 3.564282,0 4.356344,2.475193 5.148407,2.970232 0.792065,0.49504 2.574206,1.881152 2.574206,1.881152 l 2.871226,1.980156 h 2.673212 c 0,0 2.673214,-2.277179 3.168252,-2.475195 0.49504,-0.198017 2.673214,-4.356345 2.673214,-4.356345 h 3.069243"
       id="path22524" />
    <text
       xml:space="preserve"
       style="font-size:4.1512px;line-height:1.25;font-family:'Times New Roman';-inkscape-font-specification:'Times New Roman, ';stroke-width:0.41512"
       x="46.108299"
       y="29.669567"
       id="text24148"><tspan
         sodipodi:role="line"
         id="tspan24146"
         style="stroke-width:0.41512"
         x="46.108299"
         y="29.669567">OB</tspan></text>
    <text
       xml:space="preserve"
       style="font-size:4.1512px;line-height:1.25;font-family:'Times New Roman';-inkscape-font-specification:'Times New Roman, ';stroke-width:0.41512"
       x="28.682913"
       y="27.491396"
       id="text26984"><tspan
         sodipodi:role="line"
         id="tspan26982"
         style="stroke-width:0.41512"
         x="28.682913"
         y="27.491396">Pile</tspan></text>
    <text
       xml:space="preserve"
       style="font-size:4.1512px;line-height:1.25;font-family:'Times New Roman';-inkscape-font-specification:'Times New Roman, ';stroke-width:0.41512"
       x="47.692425"
       y="43.629677"
       id="text29510"><tspan
         sodipodi:role="line"
         id="tspan29508"
         style="stroke-width:0.41512"
         x="47.692425"
         y="43.629677">Scour hole</tspan></text>
    <path
       style="fill:none;stroke:#000000;stroke-width:0.41512px;stroke-linecap:butt;stroke-linejoin:miter;stroke-opacity:1;marker-start:url(#StopL);marker-end:url(#StopL)"
       d="m 35.894962,34.520955 v 6.83154"
       id="path31698" />
    <path
       style="fill:none;stroke:#000000;stroke-width:0.41512px;stroke-linecap:butt;stroke-linejoin:miter;stroke-opacity:1"
       d="m 35.068924,26.575572 4.579113,1.435616"
       id="path31821" />
    <path
       style="fill:none;stroke:#000000;stroke-width:0.41512px;stroke-linecap:butt;stroke-linejoin:miter;stroke-opacity:1"
       d="m 45.712269,29.026016 c -1.930573,1.431838 -2.440168,3.410206 -2.673213,5.494939"
       id="path31823"
       sodipodi:nodetypes="cc" />
    <path
       style="fill:none;stroke:#000000;stroke-width:0.41512px;stroke-linecap:butt;stroke-linejoin:miter;stroke-opacity:1"
       d="m 47.296393,42.243568 -3.069243,-3.366268"
       id="path32075" />
    <g
       transform="matrix(0.49573998,0,0,0.49573998,30.391828,35.754646)"
       ns2:version="1.6.0"
       ns2:texconverter="pdflatex"
       ns2:pdfconverter="inkscape"
       ns2:text="$S_t$"
       ns2:preamble="C:\Users\$r.984804\OneDrive - University of Maine System\UMaine_docs\Faculty_Service\Brochure4+1\preamble_triptico.tex"
       ns2:scale="1.691"
       ns2:alignment="middle center"
       ns2:stroke-to-path="0"
       ns2:inkscapeversion="1.1.1"
       ns2:jacobian_sqrt="0.596548"
       id="g32405">
      <defs
         id="defs32389">
        <g
           id="g32387">
          <symbol
             overflow="visible"
             id="symbol32373">
            <path
               style="stroke:none;stroke-width:0"
               d=""
               id="path32371" />
          </symbol>
          <symbol
             overflow="visible"
             id="symbol32377">
            <path
               style="stroke:none;stroke-width:0"
               d="m 6.4375,-6.921875 c 0,-0.03125 -0.03125,-0.109375 -0.125,-0.109375 -0.046875,0 -0.046875,0.015625 -0.171875,0.15625 l -0.484375,0.5625 c -0.25,-0.46875 -0.765625,-0.71875 -1.421875,-0.71875 -1.265625,0 -2.453125,1.15625 -2.453125,2.359375 0,0.796875 0.515625,1.265625 1.03125,1.40625 l 1.0625,0.28125 c 0.375,0.09375 0.921875,0.25 0.921875,1.0625 0,0.890625 -0.8125,1.828125 -1.796875,1.828125 -0.640625,0 -1.75,-0.21875 -1.75,-1.453125 0,-0.234375 0.0625,-0.484375 0.0625,-0.53125 0.015625,-0.046875 0.015625,-0.0625 0.015625,-0.078125 0,-0.09375 -0.0625,-0.109375 -0.109375,-0.109375 -0.046875,0 -0.078125,0.015625 -0.109375,0.046875 -0.03125,0.03125 -0.59375,2.3125 -0.59375,2.34375 0,0.046875 0.046875,0.09375 0.109375,0.09375 0.046875,0 0.0625,-0.015625 0.1875,-0.15625 l 0.484375,-0.5625 c 0.421875,0.578125 1.109375,0.71875 1.6875,0.71875 1.359375,0 2.53125,-1.328125 2.53125,-2.5625 0,-0.6875 -0.34375,-1.03125 -0.484375,-1.171875 -0.234375,-0.21875 -0.390625,-0.265625 -1.265625,-0.484375 -0.234375,-0.0625 -0.578125,-0.171875 -0.671875,-0.1875 -0.265625,-0.09375 -0.609375,-0.375 -0.609375,-0.90625 0,-0.8125 0.796875,-1.65625 1.75,-1.65625 0.8125,0 1.421875,0.4375 1.421875,1.546875 0,0.3125 -0.03125,0.5 -0.03125,0.5625 0,0 0,0.09375 0.109375,0.09375 0.109375,0 0.125,-0.03125 0.15625,-0.203125 z m 0,0"
               id="path32375" />
          </symbol>
          <symbol
             overflow="visible"
             id="symbol32381">
            <path
               style="stroke:none;stroke-width:0"
               d=""
               id="path32379" />
          </symbol>
          <symbol
             overflow="visible"
             id="symbol32385">
            <path
               style="stroke:none;stroke-width:0"
               d="m 1.71875,-2.75 h 0.703125 c 0.140625,0 0.21875,0 0.21875,-0.15625 0,-0.09375 -0.078125,-0.09375 -0.203125,-0.09375 h -0.65625 l 0.25,-1.03125 c 0.015625,-0.03125 0.03125,-0.078125 0.03125,-0.09375 0,-0.140625 -0.109375,-0.234375 -0.25,-0.234375 -0.171875,0 -0.265625,0.125 -0.328125,0.296875 -0.046875,0.1875 0.046875,-0.15625 -0.265625,1.0625 h -0.703125 c -0.125,0 -0.21875,0 -0.21875,0.15625 0,0.09375 0.078125,0.09375 0.203125,0.09375 h 0.65625 l -0.40625,1.640625 c -0.046875,0.171875 -0.109375,0.421875 -0.109375,0.515625 0,0.40625 0.359375,0.65625 0.75,0.65625 0.78125,0 1.21875,-0.96875 1.21875,-1.0625 0,-0.09375 -0.09375,-0.09375 -0.109375,-0.09375 -0.09375,0 -0.09375,0.015625 -0.15625,0.140625 -0.1875,0.4375 -0.546875,0.828125 -0.921875,0.828125 -0.15625,0 -0.25,-0.09375 -0.25,-0.34375 0,-0.0625 0.03125,-0.21875 0.046875,-0.28125 z m 0,0"
               id="path32383" />
          </symbol>
        </g>
      </defs>
      <g
         id="g32403"
         transform="translate(-70.7356,-99.4437)">
        <g
           style="fill:#000000;fill-opacity:1"
           id="g32395">
          <g
             transform="translate(70.22,106.475)"
             id="g32393">
            <path
               style="stroke:none;stroke-width:0"
               d="m 6.4375,-6.921875 c 0,-0.03125 -0.03125,-0.109375 -0.125,-0.109375 -0.046875,0 -0.046875,0.015625 -0.171875,0.15625 l -0.484375,0.5625 c -0.25,-0.46875 -0.765625,-0.71875 -1.421875,-0.71875 -1.265625,0 -2.453125,1.15625 -2.453125,2.359375 0,0.796875 0.515625,1.265625 1.03125,1.40625 l 1.0625,0.28125 c 0.375,0.09375 0.921875,0.25 0.921875,1.0625 0,0.890625 -0.8125,1.828125 -1.796875,1.828125 -0.640625,0 -1.75,-0.21875 -1.75,-1.453125 0,-0.234375 0.0625,-0.484375 0.0625,-0.53125 0.015625,-0.046875 0.015625,-0.0625 0.015625,-0.078125 0,-0.09375 -0.0625,-0.109375 -0.109375,-0.109375 -0.046875,0 -0.078125,0.015625 -0.109375,0.046875 -0.03125,0.03125 -0.59375,2.3125 -0.59375,2.34375 0,0.046875 0.046875,0.09375 0.109375,0.09375 0.046875,0 0.0625,-0.015625 0.1875,-0.15625 l 0.484375,-0.5625 c 0.421875,0.578125 1.109375,0.71875 1.6875,0.71875 1.359375,0 2.53125,-1.328125 2.53125,-2.5625 0,-0.6875 -0.34375,-1.03125 -0.484375,-1.171875 -0.234375,-0.21875 -0.390625,-0.265625 -1.265625,-0.484375 -0.234375,-0.0625 -0.578125,-0.171875 -0.671875,-0.1875 -0.265625,-0.09375 -0.609375,-0.375 -0.609375,-0.90625 0,-0.8125 0.796875,-1.65625 1.75,-1.65625 0.8125,0 1.421875,0.4375 1.421875,1.546875 0,0.3125 -0.03125,0.5 -0.03125,0.5625 0,0 0,0.09375 0.109375,0.09375 0.109375,0 0.125,-0.03125 0.15625,-0.203125 z m 0,0"
               id="path32391" />
          </g>
        </g>
        <g
           style="fill:#000000;fill-opacity:1"
           id="g32401">
          <g
             transform="translate(76.329,107.969)"
             id="g32399">
            <path
               style="stroke:none;stroke-width:0"
               d="m 1.71875,-2.75 h 0.703125 c 0.140625,0 0.21875,0 0.21875,-0.15625 0,-0.09375 -0.078125,-0.09375 -0.203125,-0.09375 h -0.65625 l 0.25,-1.03125 c 0.015625,-0.03125 0.03125,-0.078125 0.03125,-0.09375 0,-0.140625 -0.109375,-0.234375 -0.25,-0.234375 -0.171875,0 -0.265625,0.125 -0.328125,0.296875 -0.046875,0.1875 0.046875,-0.15625 -0.265625,1.0625 h -0.703125 c -0.125,0 -0.21875,0 -0.21875,0.15625 0,0.09375 0.078125,0.09375 0.203125,0.09375 h 0.65625 l -0.40625,1.640625 c -0.046875,0.171875 -0.109375,0.421875 -0.109375,0.515625 0,0.40625 0.359375,0.65625 0.75,0.65625 0.78125,0 1.21875,-0.96875 1.21875,-1.0625 0,-0.09375 -0.09375,-0.09375 -0.109375,-0.09375 -0.09375,0 -0.09375,0.015625 -0.15625,0.140625 -0.1875,0.4375 -0.546875,0.828125 -0.921875,0.828125 -0.15625,0 -0.25,-0.09375 -0.25,-0.34375 0,-0.0625 0.03125,-0.21875 0.046875,-0.28125 z m 0,0"
               id="path32397" />
          </g>
        </g>
      </g>
    </g>
  </g>
</svg>
